<?xml version="1.0" encoding="UTF-8"?>
<svg id="Layer_2" data-name="Layer 2" xmlns="http://www.w3.org/2000/svg" viewBox="0 0 762.76 111.43">
  <defs>
    <style>
      .cls-1 {
        fill: #fff;
      }

      .cls-2 {
        fill: #a7ff40;
      }
    </style>
  </defs>
  <g id="Layer_1-2" data-name="Layer 1">
    <g>
      <g>
        <path class="cls-1" d="M146.95,65h15.19c.24,1.49.94,2.78,2.09,3.89,1.15,1.1,2.7,1.96,4.64,2.56,1.94.6,4.24.9,6.88.9,3.65,0,6.53-.47,8.64-1.4,2.11-.94,3.17-2.31,3.17-4.14,0-1.39-.6-2.47-1.8-3.24-1.2-.77-3.5-1.32-6.91-1.66l-10.08-.94c-7.44-.67-12.84-2.36-16.2-5.08-3.36-2.71-5.04-6.37-5.04-10.98,0-3.74,1.09-6.91,3.28-9.5,2.18-2.59,5.26-4.55,9.22-5.87,3.96-1.32,8.58-1.98,13.86-1.98s9.79.73,13.82,2.2c4.03,1.46,7.24,3.54,9.61,6.23s3.66,5.81,3.85,9.36h-15.12c-.19-1.3-.8-2.41-1.84-3.35-1.03-.94-2.44-1.66-4.21-2.16-1.78-.5-3.91-.76-6.41-.76-3.36,0-6.02.44-7.99,1.33-1.97.89-2.95,2.2-2.95,3.92,0,1.25.59,2.26,1.76,3.02,1.18.77,3.3,1.3,6.37,1.58l10.73,1.08c5.14.48,9.24,1.31,12.31,2.48,3.07,1.18,5.3,2.8,6.7,4.86,1.39,2.06,2.09,4.63,2.09,7.7,0,3.79-1.13,7.09-3.38,9.9-2.26,2.81-5.42,4.99-9.5,6.55-4.08,1.56-8.83,2.34-14.26,2.34s-10.48-.78-14.72-2.34c-4.25-1.56-7.57-3.77-9.97-6.62-2.4-2.86-3.67-6.16-3.82-9.9Z"/>
        <path class="cls-1" d="M289.01,28.71v54h-14.18v-48.67l3.17.36-20.88,48.31h-15.12l-20.95-48.17,3.24-.36v48.53h-14.18V28.71h23.04l19.37,46.37h-5.76l19.22-46.37h23.04Z"/>
        <path class="cls-1" d="M338.33,28.71l24.55,54h-15.91l-20.59-47.66h4.32l-20.66,47.66h-15.91l24.55-54h19.66ZM309.6,72.35v-12.02h37.22v12.02h-37.22Z"/>
        <path class="cls-1" d="M378.29,52.33h19.66c2.4,0,4.27-.55,5.62-1.66,1.34-1.1,2.02-2.64,2.02-4.61s-.67-3.56-2.02-4.64-3.22-1.62-5.62-1.62h-21.74l6.7-7.13v50.04h-14.9V28.71h32.04c4.13,0,7.73.73,10.8,2.2,3.07,1.46,5.47,3.48,7.2,6.05,1.73,2.57,2.59,5.6,2.59,9.11s-.86,6.41-2.59,9c-1.73,2.59-4.13,4.61-7.2,6.05-3.07,1.44-6.67,2.16-10.8,2.16h-21.74v-10.94ZM386.35,57.44h16.78l19.37,25.27h-17.28l-18.86-25.27Z"/>
        <path class="cls-1" d="M424.01,28.71h56.16v13.25h-56.16v-13.25ZM444.6,35.27h14.98v47.45h-14.98v-47.45Z"/>
        <path class="cls-1" d="M515.73,28.71c3.74,0,7.01.67,9.79,2.02,2.78,1.34,4.96,3.23,6.52,5.65,1.56,2.42,2.34,5.22,2.34,8.39s-.78,5.96-2.34,8.39-3.73,4.32-6.52,5.69c-2.78,1.37-6.05,2.05-9.79,2.05h-24.7v-5.9h24.55c3.65,0,6.54-.92,8.68-2.77,2.13-1.85,3.2-4.33,3.2-7.45s-1.07-5.59-3.2-7.42c-2.14-1.82-5.03-2.74-8.68-2.74h-23.83l3.02-3.31v51.41h-6.7V28.71h27.65Z"/>
        <path class="cls-1" d="M564.19,28.71l26.64,54h-7.34l-25.06-51.7h3.6l-25.06,51.7h-7.27l26.57-54h7.92ZM540.93,69.32v-5.69h38.02v5.69h-38.02Z"/>
        <path class="cls-1" d="M647.92,79.33l-3.31.22V28.71h6.48v54h-8.64l-41.18-50.83,3.31-.22v51.05h-6.48V28.71h8.78l41.04,50.62Z"/>
        <path class="cls-1" d="M673.27,55.71l-4.18,25.42-3.53-4.32h42.19v5.9h-45.5l4.46-27-4.46-27h45.14v5.9h-41.83l3.53-4.25,4.18,25.34ZM705.81,52.83v5.76h-36.86v-5.76h36.86Z"/>
        <path class="cls-1" d="M724.96,28.71v50.98l-3.02-2.95h40.82v5.98h-44.5V28.71h6.7Z"/>
      </g>
      <path class="cls-2" d="M66.99,52.81c-1.29-5.03-5.85-8.74-11.28-8.74s-9.99,3.72-11.28,8.74h-13.93c.64-5.68,3.16-10.94,7.27-15.04,9.89-9.89,25.98-9.89,35.87,0l4.1-4.1c-5.89-5.89-13.71-9.13-22.04-9.13s-16.15,3.24-22.04,9.13c-5.2,5.2-8.33,11.91-8.99,19.14h-6.5c.68-8.96,4.49-17.3,10.91-23.72,7.11-7.11,16.56-11.02,26.62-11.02s19.51,3.92,26.62,11.02l4.1-4.1c-8.2-8.2-19.11-12.72-30.72-12.72s-22.51,4.52-30.72,12.72c-7.52,7.52-11.94,17.31-12.63,27.82h-6.49c.7-12.24,5.8-23.65,14.54-32.4,9.43-9.43,21.96-14.62,35.29-14.62s25.87,5.19,35.29,14.62l4.1-4.1c-5.32-5.32-11.52-9.44-18.43-12.24-6.68-2.71-13.73-4.08-20.96-4.08s-14.29,1.37-20.96,4.08c-6.91,2.8-13.11,6.92-18.43,12.24-5.32,5.32-9.44,11.52-12.24,18.43C1.37,41.43,0,48.48,0,55.71v2.9h44.44c1.29,5.03,5.85,8.74,11.28,8.74s9.99-3.71,11.28-8.74h13.93c-.64,5.68-3.16,10.94-7.27,15.04-9.89,9.89-25.98,9.89-35.87,0l-4.1,4.1c5.89,5.89,13.71,9.13,22.04,9.13s16.15-3.24,22.04-9.13c5.2-5.2,8.33-11.91,8.99-19.14h6.5c-.68,8.96-4.49,17.3-10.91,23.72-7.11,7.11-16.56,11.02-26.62,11.02s-19.51-3.92-26.62-11.02l-4.1,4.1c8.2,8.2,19.11,12.72,30.72,12.72s22.51-4.52,30.72-12.72c7.52-7.52,11.94-17.31,12.63-27.82h6.49c-.7,12.24-5.8,23.65-14.54,32.4-9.43,9.43-21.96,14.62-35.29,14.62s-25.87-5.19-35.29-14.62l-4.1,4.1c5.32,5.32,11.52,9.43,18.43,12.24,6.68,2.71,13.73,4.08,20.96,4.08s14.29-1.37,20.96-4.08c6.91-2.8,13.11-6.92,18.43-12.24,5.32-5.32,9.44-11.52,12.24-18.43,2.71-6.68,4.08-13.73,4.08-20.96v-2.9h-44.44Z"/>
    </g>
  </g>
</svg>